<svg xmlns="http://www.w3.org/2000/svg" viewBox="0 0 48 48">
  <rect x="3" y="3" width="42" height="42" rx="14" fill="#F59E0B"/>
  <rect x="3" y="3" width="42" height="42" rx="14" fill="url(#g)"/>
  <path d="M14 24c0-5 3-8 8-8h4c5 0 8 3 8 8v2c0 4-3 7-7 7h-3l-2-3h-4c-4 0-7-3-7-7v-1Z" fill="#fff" fill-opacity=".22" stroke="#fff" stroke-width="3" stroke-linejoin="round"/>
  <path d="M18 24h6M21 21v6" stroke="#fff" stroke-width="3" stroke-linecap="round"/>
  <path d="M29 23h.1M33 26h.1" stroke="#fff" stroke-width="4" stroke-linecap="round"/>
  <path d="M39 4v8M35 8h8" stroke="#FDE68A" stroke-width="2.6" stroke-linecap="round"/>
  <defs>
    <linearGradient id="g" x1="6" x2="43" y1="4" y2="44">
      <stop stop-color="#FCD34D"/>
      <stop offset="1" stop-color="#F97316"/>
    </linearGradient>
  </defs>
</svg>
