<svg preserveAspectRatio="none" width="100%" height="100%" overflow="visible" style="display: block;" viewBox="0 0 14 14" fill="none" xmlns="http://www.w3.org/2000/svg">
<g id="Icon">
<path id="Vector" d="M3.5 6.41667H5.83333" stroke="#2B7FFF" stroke-width="1.16667" stroke-linecap="round" stroke-linejoin="round"/>
<path id="Vector_2" d="M4.66667 5.25V7.58333" stroke="#2B7FFF" stroke-width="1.16667" stroke-linecap="round" stroke-linejoin="round"/>
<path id="Vector_3" d="M8.75 7H8.75583" stroke="#2B7FFF" stroke-width="1.16667" stroke-linecap="round" stroke-linejoin="round"/>
<path id="Vector_4" d="M10.5 5.83333H10.5058" stroke="#2B7FFF" stroke-width="1.16667" stroke-linecap="round" stroke-linejoin="round"/>
<path id="Vector_5" d="M10.1033 2.91667H3.89667C3.31933 2.9168 2.76254 3.13097 2.33394 3.51777C1.90533 3.90457 1.63534 4.43654 1.57617 5.01083C1.57267 5.04117 1.57033 5.06975 1.56625 5.0995C1.519 5.49267 1.16667 8.43267 1.16667 9.33333C1.16667 9.79746 1.35104 10.2426 1.67923 10.5708C2.00742 10.899 2.45254 11.0833 2.91667 11.0833C3.5 11.0833 3.79167 10.7917 4.08333 10.5L4.90817 9.67517C5.12691 9.45636 5.42361 9.3334 5.733 9.33333H8.267C8.57639 9.3334 8.87309 9.45636 9.09183 9.67517L9.91667 10.5C10.2083 10.7917 10.5 11.0833 11.0833 11.0833C11.5475 11.0833 11.9926 10.899 12.3208 10.5708C12.649 10.2426 12.8333 9.79746 12.8333 9.33333C12.8333 8.43208 12.481 5.49267 12.4338 5.0995C12.4297 5.07033 12.4273 5.04117 12.4238 5.01142C12.3648 4.43702 12.0949 3.90491 11.6662 3.51799C11.2376 3.13107 10.6808 2.91682 10.1033 2.91667Z" stroke="#2B7FFF" stroke-width="1.16667" stroke-linecap="round" stroke-linejoin="round"/>
</g>
</svg>
